<svg xmlns:xlink="http://www.w3.org/1999/xlink" xmlns="http://www.w3.org/2000/svg" class="logo-stacked" role="button" id="b6a00ff1-d208-4f91-a7dd-c98b6622dcaa" viewBox="0 0 300 300" width="300"  height="300" ><rect width="300" height="300" rx="67.38" fill="#2C232E"></rect><path d="M129.65,189.41c0-11.58-10.09-20.17-21.67-20.17H67.65v68H77V209.57H99.17l19.27,27.64h11.21L109.72,209.5C120.55,208.7,129.65,200.4,129.65,189.41ZM108,201H77V177.83h31c6.35,0,12.33,4.48,12.33,11.58S114.33,201,108,201Z" fill="#D3D2D2"></path><polygon points="170.35 177.83 196.5 177.83 196.5 228.62 170.35 228.62 170.35 237.21 232.35 237.21 232.35 228.62 206.21 228.62 206.21 177.83 232.35 177.83 232.35 169.24 170.35 169.24 170.35 177.83" fill="#D3D2D2"></polygon><polygon points="120.31 122.17 117.69 122.17 85.2 62.79 67.65 62.79 67.65 130.76 76.99 130.76 76.99 71.38 79.6 71.38 112.09 130.76 129.65 130.76 129.65 62.79 120.31 62.79 120.31 122.17" fill="#D3D2D2"></polygon><path d="M223,62.79v39.59c0,13.07-8.59,22.78-21.67,22.78s-21.66-9.71-21.66-22.78V62.79h-9.34v39.59c0,17.92,13.08,31.37,31,31.37s31-13.45,31-31.37V62.79Z" fill="#D3D2D2"></path></svg>